<svg width="25" height="25" viewBox="0 0 25 25" fill="none" xmlns="http://www.w3.org/2000/svg">
<g clip-path="url(#clip0_107_17)">
<path d="M21.7773 10.7343C21.7773 17.7343 12.7773 23.7343 12.7773 23.7343C12.7773 23.7343 3.77728 17.7343 3.77728 10.7343C3.77728 8.3473 4.72549 6.05812 6.41332 4.37029C8.10115 2.68246 10.3903 1.73425 12.7773 1.73425C15.1642 1.73425 17.4534 2.68246 19.1412 4.37029C20.8291 6.05812 21.7773 8.3473 21.7773 10.7343Z" stroke="#9346C0" stroke-width="2" stroke-linecap="round" stroke-linejoin="round"/>
<path d="M12.7773 13.7343C14.4341 13.7343 15.7773 12.3911 15.7773 10.7343C15.7773 9.0774 14.4341 7.73425 12.7773 7.73425C11.1204 7.73425 9.77728 9.0774 9.77728 10.7343C9.77728 12.3911 11.1204 13.7343 12.7773 13.7343Z" stroke="#9346C0" stroke-width="2" stroke-linecap="round" stroke-linejoin="round"/>
</g>
<defs>
<clipPath id="clip0_107_17">
<rect width="24" height="24" fill="white" transform="translate(0.777283 0.734253)"/>
</clipPath>
</defs>
</svg>
